<?xml version="1.0" standalone="no"?>
<!DOCTYPE svg PUBLIC "-//W3C//DTD SVG 20010904//EN"
 "http://www.w3.org/TR/2001/REC-SVG-20010904/DTD/svg10.dtd">
<svg version="1.0" xmlns="http://www.w3.org/2000/svg"
 width="700.000000pt" height="700.000000pt" viewBox="0 0 700.000000 700.000000"
 preserveAspectRatio="xMidYMid meet">
<metadata>
Created by potrace 1.14, written by Peter Selinger 2001-2017
</metadata>
<g transform="translate(0.000000,700.000000) scale(0.100000,-0.100000)"
fill="#000000" stroke="none">
<path d="M675 6022 c-266 -33 -518 -230 -619 -484 -59 -149 -56 -36 -53 -2063
3 -2024 -1 -1888 57 -2025 46 -109 149 -243 248 -322 35 -28 164 -95 217 -113
135 -45 40 -44 3010 -42 2703 2 2812 3 2875 21 143 41 266 112 362 209 101
102 170 225 207 367 19 73 19 127 17 1950 -2 2035 2 1883 -53 2021 -77 195
-260 370 -459 440 -141 50 -12 48 -2989 46 -1534 0 -2803 -2 -2820 -5z"/>
</g>
</svg>
